<svg xmlns="http://www.w3.org/2000/svg" viewBox="0 0 1734.81 207"><defs><style>.cls-1{fill:#6457a0;}</style></defs><title>Recurso 8</title><g id="Capa_2" data-name="Capa 2"><g id="Capa_1-2" data-name="Capa 1"><path class="cls-1" d="M254.44,14.66q-.08,48-.16,96c.76,28.55-25.77,49.19-52.69,48.28-27.21-.91-51.82-24.62-52.29-52q.09-46.19.19-92.38l23.34,0-.12,56.88c-8.2,3-11.77,10.32-11.61,17.64.57,26.88,32.45,56.55,59.24,58.08,11.42.66,20.87-7.69,20.9-19.22,0-9.17-4.32-20.91-10.3-28.07q.06-28.05.1-56.08l-5.87-5.32q13.26-11.85,26.42-23.81h2.85"/><path class="cls-1" d="M313.1,14.5l-.16,146.08c.83,28.15-26.95,47.5-52.71,46.37a57.94,57.94,0,0,1-37.09-16c6.58-5.6,9.86-8.43,16.44-14.12a66.22,66.22,0,0,0,39.32,18.8,18.65,18.65,0,0,0,20.9-18.38c0-8.92-4.39-20.23-10.22-27.14q.06-52.92.14-105.82l-5.88-5.58Q297,26.64,310.07,14.5h3"/><path class="cls-1" d="M431.24,14.94V39.48L410.74,20.6l-49.54,0q0,22.8,0,45.59,26.2.09,52.42.07c0,9.8,0,14.69,0,24.49q-10.19-9.54-20.34-19.1l-32.09-.09,0,62.34c.76,10.12,11.29,15.5,20.34,15.71,19.3.44,38.18-15,49.07-29.75q0,18,0,36c-7.84,5.52-19.95,8.84-29.27,8.84-15.65,0-31.86-8.31-41.76-20.56-7.58,7-11.36,10.46-18.93,17.38l-2.86,0q.06-73.29.11-146.56h93.38"/><path class="cls-1" d="M504.58,99.26c-8.06.5-11.66-.88-13.64-1.59,5.37,7.41,8.05,11.11,13.42,18.47a20.29,20.29,0,0,0,17.31,8.45l6.13-.16q11.84,17,23.77,33.94c-10,.4-14.92.58-24.88.91-15.22-22.13-30.61-44.13-46.47-65.81a28.83,28.83,0,0,1-6.15-4.33l.06,71.54c-9.35.18-14,.26-23.38.38l-.09-146.54c7.13,6.63,10.7,9.94,17.83,16.54C478.3,19,494.2,10.8,509.81,11c22.81.28,45.13,17.27,45.51,41.28.41,26.34-26.24,46.18-50.74,47m-25.7-29.74c-.08,10.89,5.47,24.82,17.95,24.61,23-.38,38.34-33,38.49-53.35.08-11-5.72-24.54-18.12-24.56-22.92,0-38.18,33-38.32,53.3"/><path class="cls-1" d="M801.32,98.3c.51,32.51-41.72,48.48-68.4,51-24.76,2.37-52.22-6.2-59.86-32.54q15.11-7.31,30.24-14.54c-2.66,29.57,31.2,38.24,54.5,35.72,12.65-1.37,29.06-7.39,29.48-21.9.24-8-5-16-11.21-22.53a84.74,84.74,0,0,1-36.63,11.15c-27.33,2.07-62-14.31-62-44.5s34.34-47.91,62.09-47.32q27.43.71,54.88,1.36c-.21,2.29-.32,3.44-.53,5.74q-9.9,11.91-19.58,24c-6.36-18.59-42.72-20.88-58.45-21.39-11.61-.38-24.36,6.64-24.55,19.19-.13,8.46,5.41,18.64,11.27,24.63A73.18,73.18,0,0,1,739.37,56c25-.51,61.49,12.83,62,42.33m-38.59-5.42A37.18,37.18,0,0,0,773.58,91a86.73,86.73,0,0,0-57.7-23.69,30.82,30.82,0,0,0-10.68,1.89c15.12,16,37.14,24,57.53,23.73"/><path class="cls-1" d="M81.57,147.84q28,2.34,56.06,4.35a118.08,118.08,0,0,1-3.68-31.6q.12-53.15.22-106.29l-11.76,0h-4.36Q91.64,50.85,64.29,86.72,44.19,50.18,23.34,14.08L0,14C2.35,17.31,3.53,19,5.88,22.27q0,36.35,0,72.7C5.81,110.46,5.16,125,2,140.21q18.45,2,36.92,3.75l1.62.16,4.77.45c-17.34-12.71-33.8-27.42-33.7-50.51.09-20.81,0-41.78,0-62.67l-.2-.45Q33.81,71,55.29,111.51c9.32.64,14,.95,23.31,1.55-4.19-7.74-6.29-11.59-10.47-19.24q21.65-28.39,42.65-57.25l-.11,62.87c.3,22.73-8.24,38.46-29.1,48.4"/><path class="cls-1" d="M663.41,14.7l.05,23.06c-8.21-7-12.32-10.53-20.53-17.66q-24.76.11-49.53.18l.08,44.15q26.21-.51,52.39-1.12l0,23.18c-8.14-6.95-12.21-10.47-20.35-17.58q-16,.38-32.08.72l.12,63.71c.81,10,11.67,14.38,20.35,14,19.26-.78,37.82-16.12,48.94-30.83q0,15.31.07,30.63c-7.87,5.7-19.77,9.54-29.2,10.16A52.72,52.72,0,0,1,592,140c-7.54,7.18-11.32,10.78-18.87,18l-2.85.13q-.12-71.67-.26-143.34l93.37-.14"/><path class="cls-1" d="M962,150.91q28,3.45,56,6.46a195.19,195.19,0,0,1-3.64-32.69q.17-54.75.32-109.5L1003,15.05l-4.37,0Q972.33,52,944.79,88.1q-19.95-37.41-40.88-74.28l-23.33-.34c2.35,3.32,3.52,5,5.87,8.34q0,36.41,0,72.81c0,15.46-.68,30-3.9,45.13q18.4,2.87,36.84,5.46l1.62.23,4.76.67c-17.14-13.46-33.73-28.86-33.63-52.2.09-20.88,0-41.91,0-62.87l-.2-.45Q914.5,71.47,935.78,113c9.31,1,14,1.43,23.28,2.33-4.17-8-6.26-12-10.44-19.9q21.79-28.49,42.68-57.62l-.18,64.51c.28,22.78-7.78,39-29.12,48.59"/><path class="cls-1" d="M1269.31,120.54c.11,36.22-37.25,53.93-68.83,52.75-27.55-1-52.77-16.51-59.89-44.32q15.21-6.54,30.36-13.2c-2.41,30.62,27.34,47.32,54.56,47.66,13,.16,30.18-7,29.67-22.61-.29-9.32-5.22-21.13-11.22-28.51a66.59,66.59,0,0,1-36.78,9.76c-29.27-.75-62-23.73-62-55.27s33.63-52.17,62.34-52q27.43,1,54.89,1.88l-.54,7q-9.81,14.37-19.64,28.69c-5.43-20.71-41.11-25.77-58.44-26.63-12.68-.63-24.45,8.13-24.65,21.13-.14,9.5,5.21,20.95,11.17,28.25,11-7,24.15-10,36.94-10,29.73.15,61.94,23.6,62,55.4m-38.73-10.21a34.46,34.46,0,0,0,10.89-1.35c-13.79-17-35.49-31.46-57.77-32.06a29.77,29.77,0,0,0-10.7,1.5c13.74,16.77,35.5,31.36,57.58,31.91"/><path class="cls-1" d="M1313.22,16.46q0,78,0,156.06c-9.37,0-14,0-23.41-.05l0-124.06-5.7-6q13.13-13,26.21-26Z"/><path class="cls-1" d="M1430.61,160a48.43,48.43,0,0,0,33-15.22l2.55,2.79c-14.16,14.86-35.07,25.27-55.66,25.85-43.54,1.22-79-36-79-79,0-43.2,34.9-80.91,78.74-81a80,80,0,0,1,63.7,32.29c-6.47,6.62-9.71,9.94-16.18,16.62-15.65-19.87-39.46-33.28-64.76-33.58-26.6-.32-46.08,21.79-46.14,47.49-.11,43,39.61,85.63,83.81,83.78"/><path class="cls-1" d="M1734.8,97.59c-.57,32.53-41.35,50.39-68.27,54.12-24.88,3.45-52.27-4.66-59.84-31.31q15.07-7.94,30.21-15.74c-2.63,30,30.88,38.09,54.46,34.5,12.82-1.95,29-8.71,29.43-23.25.25-8.06-5-15.89-11.2-22.25A86.51,86.51,0,0,1,1673,106.09c-27.83,3-62-13.48-62-44s33.51-49.57,62-49.24q27.42.42,54.86.76c-.21,2.3-.32,3.45-.53,5.75-6.61,8.07-13.1,16.24-19.57,24.43C1701.45,25.23,1665,23.28,1649.33,23c-11.89-.25-24.34,7.28-24.52,20-.13,8.59,5.35,18.93,11.28,25a70.62,70.62,0,0,1,36.82-11.34c22.59-.31,62.42,10.74,61.89,41m-38.53-4.17a37.13,37.13,0,0,0,10.83-2.28,85.2,85.2,0,0,0-57.66-22.54,30.26,30.26,0,0,0-10.67,2.15c15.07,16,37.2,23.53,57.5,22.67"/><path class="cls-1" d="M1135,16.16l-.26,100.57c.66,29.05-24.64,51.06-52.77,49.31s-51.69-27.47-52.22-55.29q.15-47.71.29-95.42l23.35.22q-.11,29.48-.19,59c-8.2,2.94-11.78,10.48-11.64,18.07.52,27.78,31.25,59,59.18,61.66,11.94,1.17,20.92-8,20.93-19.64,0-9.55-4.24-21.85-10.27-29.54q.09-29.29.17-58.59l-5.87-5.61q13.3-12.27,26.45-24.72Z"/><path class="cls-1" d="M1549.34,7.38c-9.33,3.27-14,4.92-23.32,8.26,1.44,3.92,2.16,5.88,3.59,9.79q-13.54,42.35-26.84,84.77c-12.09,9.39-19.2,25-19.34,39.9-.06,6.11,2,10.76,3.08,16.66q20-1.29,40-2.87c-15.22-3.47-28.78-16.25-29.34-32-.43-11.86,9.24-20.71,21-21,25.12-.55,56.68,21.9,58.62,48.58,10.25-1,15.38-1.53,25.63-2.62-19.31-49.25-36.63-99.17-53-149.46m-13.8,90.1a56.17,56.17,0,0,0-24.56,7.16q10.9-34.95,22-69.87,12,33,24.18,65.93a55.61,55.61,0,0,0-21.57-3.22"/><path class="cls-1" d="M1081.59,28.23q15.24-14,30.33-28.23h-10.11q-12.61,11.85-25.36,23.54l5.14,4.69"/></g></g></svg>