<svg width="2611" height="1714" viewBox="0 0 2611 1714" fill="none" xmlns="http://www.w3.org/2000/svg">
<path d="M482.717 121.507C482.717 110.275 486.681 100.726 494.521 92.7797C502.443 84.9583 511.611 80.9346 522.589 80.9346H563.199C574.343 80.9346 583.999 84.9583 591.761 92.7797C599.767 100.726 603.647 110.275 603.647 121.507V524.982H482.717V121.507ZM522.589 796.658V735.907C522.589 730.763 520.031 727.237 514.749 725.749C505.338 723.937 497.664 719.476 491.635 712.378C485.773 704.764 482.717 696.177 482.717 686.522V605.92H603.647V686.522C603.647 696.177 600.43 704.764 594.157 712.378C588.046 719.476 580.621 723.937 571.624 725.749C566.006 727.237 563.199 730.763 563.199 735.907V796.658C563.199 804.617 566.997 807.963 575.003 806.807C601.334 804.617 624.116 794.468 643.681 776.558C663.573 794.468 686.521 804.617 712.769 806.807C720.692 807.963 724.739 804.617 724.739 796.658V735.907C724.739 730.371 721.849 726.947 716.235 725.749C707.239 723.937 699.814 719.476 693.702 712.378C687.263 704.764 684.046 696.177 684.046 686.522V121.507C684.046 111.852 687.263 103.201 693.702 95.6695C699.814 88.5717 707.239 83.7415 716.235 81.4693C721.849 80.4415 724.739 77.2612 724.739 72.0439V11.2884C724.739 3.34254 720.692 0.00103878 712.769 1.15789C686.521 3.34255 663.656 13.5192 644.257 31.614C620.899 10.5049 593.909 0.00100609 563.199 0.00100609H522.589C491.963 0.00100609 465.138 10.5049 442.273 31.614C422.381 13.5192 399.267 3.34255 373.014 1.15789C365.013 0.00103878 361.211 3.34254 361.211 11.2884V72.0439C361.211 77.2612 364.022 80.4415 369.553 81.4693C378.964 83.7415 386.638 88.5717 392.662 95.6695C398.603 103.201 401.664 111.852 401.664 121.507V686.522C401.664 696.177 398.603 704.764 392.662 712.378C386.638 719.476 378.964 723.937 369.553 725.749C364.022 727.237 361.211 730.763 361.211 735.907V796.658C361.211 804.617 365.013 807.963 373.014 806.807C399.267 804.617 422.381 794.468 442.273 776.558C461.755 794.468 484.787 804.617 511.445 806.807C518.874 807.963 522.589 804.617 522.589 796.658" fill="white"/>
<path d="M1196.73 796.657V735.367C1196.73 730.186 1194.09 726.946 1188.88 725.748C1179.48 723.936 1171.8 719.189 1165.77 711.718C1159.42 704.288 1156.28 695.619 1156.28 685.862V484.371C1156.28 474.734 1159.42 466.046 1165.77 458.556C1171.8 451.127 1179.48 446.402 1188.88 444.522C1194.09 443.324 1196.73 440.166 1196.73 434.949V373.617C1196.73 366.515 1193.01 363.049 1185.5 363.445C1159.17 366.105 1135.98 376.134 1115.59 393.86C1095.69 376.134 1072.75 366.105 1046.5 363.445C1039.07 363.049 1035.19 366.515 1035.19 373.617V434.949C1035.19 440.166 1037.83 443.324 1043.11 444.522C1052.52 446.402 1060.12 451.127 1066.22 458.556C1072.58 466.046 1075.72 474.734 1075.72 484.371V685.862C1075.72 697.172 1071.84 706.703 1064 714.585C1055.99 722.512 1046.5 726.434 1035.19 726.434H993.011C981.701 726.434 972.432 722.512 964.943 714.585C957.435 706.703 953.964 697.172 954.789 685.862V120.967C953.964 109.703 957.435 100.107 964.943 92.2258C972.432 84.4827 981.701 80.4407 993.011 80.4407H1037.58C1048.31 80.4407 1057.56 84.4827 1064.99 92.2258C1072.58 100.107 1076.3 109.703 1075.72 120.967C1075.72 130.669 1072.58 139.274 1066.22 146.828C1060.12 154.051 1052.52 158.401 1043.11 160.342C1037.83 161.54 1035.19 164.697 1035.19 169.961V231.845C1035.19 239.068 1039.07 242.146 1046.5 241.358C1072.75 239.192 1095.94 228.979 1116.25 211.064C1136.14 228.979 1159.17 239.192 1185.5 241.358C1193.01 242.146 1196.73 239.068 1196.73 231.845V169.961C1196.73 164.697 1194.09 161.54 1188.88 160.342C1179.48 158.401 1171.8 154.051 1165.77 146.828C1159.42 139.274 1156.28 130.669 1156.28 120.967C1156.28 111.293 1159.42 102.541 1165.77 95.1156C1171.8 87.9118 1179.48 83.4134 1188.88 81.4731C1194.09 80.4407 1196.73 77.265 1196.73 72.0431V10.0892C1196.73 3.07438 1193.01 -0.14265 1185.5 0.497997C1159.17 2.74718 1135.98 12.9791 1115.59 30.9357C1092.88 10.3612 1065.9 0.000219959 1035.19 0.000219959H994.823C963.869 0.000219959 937.128 10.3612 914.322 30.9357C894.37 12.9791 871.173 2.74718 844.51 0.497997C837.081 -0.14265 833.287 3.07438 833.287 10.0892V71.4624C833.287 77.1176 835.845 80.4407 841.127 81.4731C850.456 83.4134 858.213 87.9118 864.241 95.1156C870.514 102.541 873.731 111.293 873.731 120.967V685.862C873.731 695.619 870.514 704.288 864.241 711.718C858.213 719.189 850.456 723.936 841.127 725.748C835.845 726.946 833.287 730.186 833.287 735.367V796.657C833.287 804.229 837.081 807.695 844.51 806.81C870.758 804.229 894.038 793.85 914.322 775.875C937.128 796.924 963.869 807.345 994.823 807.345H1035.19C1065.9 807.345 1092.88 797.131 1115.59 776.557C1135.56 794.053 1158.92 804.229 1185.5 806.81C1193.01 807.695 1196.73 804.229 1196.73 796.657Z" fill="white"/>
<path d="M1656.99 806.809C1664.83 807.694 1668.8 804.228 1668.8 796.655V735.37C1668.8 730.184 1665.99 726.949 1660.38 725.751C1651.38 723.935 1643.7 719.187 1637.35 711.716C1631.24 704.287 1628.27 695.871 1628.27 686.519V120.97C1628.27 111.291 1631.24 102.539 1637.35 95.1139C1643.7 87.9101 1651.38 83.4117 1660.38 81.4714C1665.99 80.4389 1668.8 77.1205 1668.8 71.4652V10.6268C1668.8 3.20175 1664.83 -0.144359 1656.99 0.496288C1630.74 2.74547 1607.55 12.982 1587.74 30.934C1567.93 12.982 1544.81 2.74547 1518.65 0.496288C1511.06 -0.144359 1507.26 3.20175 1507.26 10.6268V71.4652C1507.26 77.1205 1509.9 80.4389 1515.18 81.4714C1524.59 83.4117 1532.26 87.9101 1538.29 95.1139C1544.32 102.539 1547.29 111.291 1547.29 120.97V685.86C1547.29 697.17 1543.33 706.706 1535.49 714.588C1527.56 722.51 1518.24 726.433 1507.26 726.433H1466.73C1455.59 726.433 1446.01 722.51 1438.08 714.588C1430.16 706.706 1426.37 697.17 1426.37 685.86V120.97C1426.37 111.291 1429.5 102.539 1435.78 95.1139C1441.8 87.9101 1449.31 83.4117 1458.39 81.4714C1464.09 80.4389 1466.73 77.1205 1466.73 71.4652V10.6268C1466.73 3.20175 1463.01 -0.144359 1455.59 0.496288C1428.84 2.74547 1405.81 12.982 1386.41 30.934C1366.02 12.982 1342.83 2.74547 1316.58 0.496288C1309.07 -0.144359 1305.19 3.20175 1305.19 10.6268V71.4652C1305.19 77.1205 1308 80.4389 1313.2 81.4714C1322.52 83.4117 1330.28 87.9101 1336.14 95.1139C1342.67 102.539 1345.8 111.291 1345.8 120.97V685.86C1345.8 719.727 1357.69 748.325 1381.3 771.997C1404.9 795.664 1433.38 807.343 1466.73 807.343H1507.26C1538.04 807.343 1564.87 796.922 1587.74 775.878C1607.55 793.848 1630.74 804.228 1656.99 806.809Z" fill="white"/>
<path d="M1899.01 121.507C1899.01 110.275 1902.89 100.726 1910.73 92.7797C1918.58 84.9583 1928.15 80.9346 1938.88 80.9346H1979.41C1990.56 80.9346 2000.21 84.9583 2008.05 92.7797C2015.97 100.726 2019.78 110.275 2019.78 121.507V524.982H1899.01V121.507ZM1927.74 806.807C1935.17 807.963 1938.88 804.617 1938.88 796.658V735.907C1938.88 730.763 1936.24 727.237 1930.96 725.749C1921.63 723.937 1913.96 719.476 1907.84 712.378C1902.06 704.764 1899.01 696.177 1899.01 686.522V605.92H2019.78V686.522C2019.78 696.177 2016.64 704.764 2010.36 712.378C2004.34 719.476 1996.91 723.937 1987.83 725.749C1982.22 727.237 1979.41 730.763 1979.41 735.907V796.658C1979.41 804.617 1983.38 807.963 1991.22 806.807C2017.38 804.617 2040.33 794.468 2059.89 776.558C2079.7 794.468 2102.81 804.617 2129.06 806.807C2136.99 807.963 2140.95 804.617 2140.95 796.658V735.907C2140.95 730.371 2138.06 726.947 2132.37 725.749C2123.45 723.937 2116.02 719.476 2110 712.378C2103.56 704.764 2100.42 696.177 2100.42 686.522V121.507C2100.42 111.852 2103.56 103.201 2110 95.6695C2116.02 88.5717 2123.45 83.7415 2132.37 81.4693C2138.06 80.4415 2140.95 77.2612 2140.95 72.0439V11.2884C2140.95 3.34254 2136.99 0.00103878 2129.06 1.15789C2102.81 3.34255 2079.95 13.5192 2060.47 31.614C2037.11 10.5049 2010.12 0.00100609 1979.41 0.00100609H1938.88C1908.01 0.00100609 1881.26 10.5049 1858.49 31.614C1838.51 13.5192 1815.39 3.34255 1789.07 1.15789C1781.39 0.00103878 1777.35 3.34254 1777.35 11.2884V72.0439C1777.35 77.2612 1780.06 80.4415 1785.84 81.4693C1795.17 83.7415 1802.85 88.5717 1808.96 95.6695C1814.99 103.201 1817.87 111.852 1817.87 121.507V686.522C1817.87 696.177 1814.99 704.764 1808.96 712.378C1802.85 719.476 1795.17 723.937 1785.84 725.749C1780.06 727.237 1777.35 730.763 1777.35 735.907V796.658C1777.35 804.617 1781.39 807.963 1789.07 806.807C1815.39 804.617 1838.51 794.468 1858.49 776.558C1877.89 794.468 1900.99 804.617 1927.74 806.807" fill="white"/>
<path d="M352.135 907.741C325.887 909.888 302.69 920.037 282.304 938.035C259.517 917.028 232.776 906.524 201.901 906.524H161.457C130.586 906.524 103.84 917.028 80.8921 938.035C61.0827 920.037 37.8904 909.888 11.1445 907.741C3.63187 906.524 0 909.681 0 917.235V978.604C0 984.259 2.72392 987.338 8.42061 988.08C17.3344 990.223 24.847 995.011 30.8709 1002.23C37.3096 1009.64 40.3608 1018.21 40.3608 1028.03V1592.92C36.3187 1615.35 25.5061 1628.64 7.67855 1632.34C2.47963 1633.82 0 1637.17 0 1642.51V1698.7C0 1709.21 3.63187 1714.21 11.1445 1713.99C37.8904 1711.35 61.0827 1700.99 80.8921 1682.96C100.761 1700.99 123.986 1711 150.147 1713.35C157.742 1714.09 161.457 1710.75 161.457 1703.26V1642.51C161.457 1637.17 158.816 1633.82 153.451 1632.34C144.123 1630.56 136.449 1625.92 130.503 1618.84C124.147 1611.43 120.926 1602.74 120.926 1592.92V1431.38H161.457C171.113 1431.38 179.782 1434.79 187.212 1441.08C194.471 1447.02 198.933 1454.78 200.748 1464.13C201.901 1469.35 205.205 1472.02 210.985 1472.02H272.234C279.497 1472.02 282.549 1468.28 281.968 1460.64C279.576 1434.45 269.505 1411.26 251.512 1390.89C269.505 1371.04 279.576 1347.97 281.968 1321.76C282.549 1314.29 279.497 1310.54 272.234 1310.54H210.985C205.205 1310.54 201.901 1313.16 200.748 1318.29C198.933 1327.66 194.471 1335.54 187.212 1341.36C179.782 1347.85 171.113 1351.05 161.457 1351.05H120.926V1028.03C120.926 1016.8 124.972 1007.18 133.393 999.367C141.15 991.421 150.561 987.54 161.457 987.54H201.901C211.704 987.54 220.148 990.578 227.241 996.496C234.758 1002.98 239.464 1010.61 241.197 1019.57C242.432 1025.22 245.82 1028.03 251.512 1028.03H313.917C319.526 1028.03 322.748 1025.44 324.066 1020.2C327.454 1002.98 337.69 992.2 355.025 988.08C360.638 987.338 363.445 984.259 363.445 978.604V917.235C363.445 909.681 359.624 906.524 352.135 907.741Z" fill="white"/>
<path d="M1041.46 1632.34C1023.8 1629.01 1013.23 1618.44 1009.93 1600.89C1008.86 1595.27 1005.47 1592.49 999.863 1592.49H937.291C932.092 1592.49 928.954 1595.27 927.797 1600.89C925.902 1609.84 921.192 1617.58 913.684 1623.87C906.254 1629.94 897.59 1633.01 887.846 1633.01H605.298C594.158 1633.01 584.58 1629.01 576.57 1621.19C568.818 1613.23 564.849 1603.55 564.849 1592.49V1027.51C564.849 1017.75 568.071 1009.12 574.344 1001.57C580.451 994.472 588.046 989.835 597.536 987.545C602.74 986.406 605.298 983.226 605.298 977.986V916.553C605.298 909.473 601.5 906.335 594.158 907.141C567.412 909.266 544.376 919.235 524.982 936.938C505.006 919.235 481.731 909.266 455.063 907.141C447.638 906.335 443.841 909.473 443.841 916.553V977.986C443.841 983.226 446.73 986.406 452.344 987.545C461.341 989.397 468.771 994.14 474.794 1001.57C481.233 1009.12 484.289 1017.75 484.289 1027.51V1592.49C484.289 1602.15 481.233 1610.77 474.794 1618.3C468.771 1625.46 461.341 1630.15 452.344 1632.34C446.73 1633.16 443.841 1636.29 443.841 1641.91V1703.26C443.841 1710.44 447.638 1713.77 455.063 1713.35C481.731 1710.75 505.006 1700.72 524.982 1682.96C547.764 1703.26 574.593 1713.35 605.298 1713.35H887.846C918.551 1713.35 945.629 1703.26 968.821 1682.96C988.22 1700.72 1011.41 1710.75 1038 1713.35C1045.51 1713.77 1049.3 1710.44 1049.3 1703.26V1641.91C1049.3 1636.29 1046.66 1633.16 1041.46 1632.34Z" fill="white"/>
<path d="M928.376 1391.47C928.376 1402.45 924.495 1411.79 916.49 1419.61C908.65 1427.61 899.321 1431.38 888.425 1431.38H847.811C836.667 1431.38 827.011 1427.61 819.231 1419.61C811.41 1411.79 807.284 1402.45 807.284 1391.47V1028.03C807.284 1016.8 811.41 1007.18 819.231 999.368C827.011 991.422 836.667 987.541 847.811 987.541H888.425C899.321 987.541 908.65 991.422 916.49 999.368C924.495 1007.18 928.376 1016.8 928.376 1028.03V1391.47ZM1038 907.741C1011.74 909.889 988.8 920.038 968.82 938.036C945.627 917.379 918.882 907.142 888.425 907.142H847.811C817.106 907.142 790.111 917.379 766.836 938.036C746.529 920.038 723.42 909.889 697.665 907.741C690.147 906.81 686.276 910.009 686.276 917.231V978.604C686.276 984.255 688.995 987.541 694.199 988.615C703.689 990.578 711.367 995.007 717.396 1002.23C723.337 1009.64 726.392 1018.21 726.392 1028.03V1391.47C726.392 1400.9 723.337 1409.38 717.396 1416.88C711.367 1424.37 703.689 1429.11 694.199 1430.97C688.995 1432.04 686.276 1435.46 686.276 1441.08V1501.85C686.276 1509.38 690.147 1512.73 697.665 1511.9C724.245 1509.38 747.437 1499.13 766.836 1481.54C790.111 1502.16 817.106 1512.52 847.811 1512.52H888.425C918.882 1512.52 945.627 1502.16 968.82 1481.54C988.8 1499.13 1011.74 1509.38 1038 1511.9C1045.51 1512.73 1049.3 1509.38 1049.3 1501.85V1441.08C1049.3 1435.46 1046.66 1432.04 1041.46 1430.97C1032.05 1429.11 1024.29 1424.37 1018.35 1416.88C1012.32 1409.67 1009.35 1401.25 1009.35 1391.47V1028.03C1009.35 1018.21 1012.32 1009.64 1018.35 1002.23C1024.29 995.007 1032.05 990.578 1041.46 988.615C1046.66 987.541 1049.3 984.255 1049.3 978.604V917.231C1049.3 910.009 1045.51 906.81 1038 907.741" fill="white"/>
<path d="M1372.3 1310.53C1372.3 1321.37 1368.34 1330.74 1360.41 1338.6C1352.24 1346.56 1342.66 1350.38 1331.77 1350.38H1250.8V1027.51C1250.8 1016.62 1254.67 1007.19 1262.68 999.364C1270.44 991.423 1279.93 987.542 1291.24 987.542H1331.77C1342.66 987.542 1352.24 991.423 1360.41 999.364C1368.34 1007.19 1372.3 1016.62 1372.3 1027.51V1310.53ZM1484.81 1632.33C1475.81 1630.56 1468.3 1625.92 1462.19 1618.84C1456 1611.43 1452.69 1602.74 1452.69 1592.92V1472.01C1452.69 1441.28 1442.38 1414.27 1421.82 1390.89C1442.38 1368.05 1452.69 1341.22 1452.69 1310.53V1027.51C1452.69 994.142 1440.89 965.622 1417.37 942.015C1393.51 918.385 1365.2 906.526 1331.77 906.526H1291.24C1260.45 906.526 1233.62 916.841 1210.76 937.374C1190.79 919.827 1167.67 909.678 1141.01 907.143C1133.5 906.337 1129.7 909.678 1129.7 917.232V978.601C1129.7 983.763 1132.34 986.939 1137.71 988.077C1147.03 989.893 1154.63 994.7 1160.74 1002.23C1167.09 1009.64 1170.31 1018.08 1170.31 1027.51V1592.92C1170.31 1602.74 1167.09 1611.43 1160.74 1618.84C1154.63 1625.92 1147.03 1630.56 1137.71 1632.33C1132.34 1633.41 1129.7 1636.85 1129.7 1642.51V1703.26C1129.7 1710.75 1133.5 1714.1 1141.01 1713.35C1167.67 1711 1190.79 1700.99 1210.76 1682.96C1230.24 1700.72 1253.35 1710.75 1279.93 1713.35C1287.53 1714.1 1291.24 1710.75 1291.24 1703.26V1642.51C1291.24 1636.85 1288.6 1633.41 1283.4 1632.33C1273.99 1630.56 1266.31 1625.92 1260.29 1618.84C1253.93 1611.43 1250.8 1602.74 1250.8 1592.92V1431.38H1331.77C1342.99 1431.38 1352.57 1435.46 1360.41 1443.22C1368.34 1451.17 1372.3 1460.64 1372.3 1472.01V1592.92C1372.3 1602.74 1369.08 1611.43 1362.64 1618.84C1356.7 1625.92 1349.02 1630.56 1339.61 1632.33C1334.33 1633.41 1331.77 1636.85 1331.77 1642.51V1703.86C1331.77 1710.96 1335.56 1714.1 1342.99 1713.35C1369.57 1711 1392.69 1700.99 1412.09 1682.96C1432.04 1700.99 1455.34 1711 1482 1713.35C1489.51 1714.1 1493.22 1710.96 1493.22 1703.86V1642.51C1493.22 1636.85 1490.42 1633.41 1484.81 1632.33" fill="white"/>
<path d="M1618.77 921.711C1608.95 931.449 1604.08 943.299 1604.08 957.204C1604.08 971.091 1608.95 983.121 1618.77 993.219C1628.6 1002.98 1640.49 1007.83 1654.77 1007.83C1668.63 1007.83 1680.44 1002.98 1690.18 993.219C1699.91 983.121 1704.79 971.091 1704.79 957.204C1704.79 943.299 1699.91 931.449 1690.18 921.711C1680.44 911.58 1668.63 906.524 1654.77 906.524C1640.49 906.524 1628.6 911.58 1618.77 921.711Z" fill="white"/>
<path d="M1723.94 1028.5C1697.35 1030.83 1674.25 1040.94 1654.76 1058.92C1634.88 1040.94 1611.6 1030.83 1585.02 1028.5C1577.42 1027.84 1573.71 1031.06 1573.71 1038.2V1099.45C1573.71 1105.04 1576.43 1108.51 1581.54 1109.52C1590.96 1111.44 1598.55 1115.97 1604.66 1123.08C1611.01 1130.55 1614.24 1139.32 1614.24 1148.97V1592.92C1614.24 1602.74 1611.01 1611.43 1604.66 1618.84C1598.55 1625.92 1590.96 1630.6 1581.54 1633.01C1576.43 1634.02 1573.71 1637.17 1573.71 1642.51V1703.86C1573.71 1710.96 1577.42 1714.21 1585.02 1713.99C1611.6 1711.35 1634.88 1700.99 1654.76 1682.96C1674.25 1700.99 1697.35 1711.35 1723.94 1713.99C1731.53 1714.21 1735.25 1710.96 1735.25 1703.86V1642.51C1735.25 1637.17 1732.52 1634.02 1727.32 1633.01C1717.83 1630.6 1710.32 1625.92 1704.37 1618.84C1697.85 1611.43 1694.64 1602.74 1694.64 1592.92V1148.97C1694.64 1139.32 1697.85 1130.55 1704.37 1123.08C1710.32 1115.97 1717.83 1111.44 1727.32 1109.52C1732.52 1108.51 1735.25 1105.04 1735.25 1099.45V1038.2C1735.25 1031.06 1731.53 1027.84 1723.94 1028.5Z" fill="white"/>
<path d="M2086.23 1592.48C2086.23 1603.55 2082.34 1613.23 2074.59 1621.19C2066.5 1629.01 2057 1633.01 2045.78 1633.01H2005.41C1994.02 1633.01 1984.45 1629.01 1976.61 1621.19C1968.77 1613.23 1964.8 1603.55 1964.8 1592.48V1027.51C1964.8 1016.14 1968.77 1006.75 1976.61 998.769C1984.45 990.883 1994.02 986.938 2005.41 986.938H2045.78C2057 986.938 2066.5 990.883 2074.59 998.769C2082.34 1006.75 2086.23 1016.14 2086.23 1027.51V1592.48ZM2045.78 906.525H2005.41C1974.46 906.525 1947.71 916.84 1924.69 937.373C1904.96 919.357 1881.68 909.268 1855.02 907.143C1847.5 906.336 1843.88 909.683 1843.88 917.232V977.987C1843.88 983.601 1846.68 986.938 1852.29 988.077C1861.21 989.893 1868.8 994.474 1874.74 1001.57C1881.08 1009.13 1884.24 1017.75 1884.24 1027.51V1592.48C1884.24 1602.15 1881.08 1610.77 1874.74 1618.3C1868.8 1625.83 1861.21 1630.56 1852.29 1632.33C1846.68 1633.41 1843.88 1636.77 1843.88 1641.91V1703.26C1843.88 1710.75 1847.5 1714.1 1855.02 1713.35C1881.68 1710.75 1904.96 1700.72 1924.69 1682.96C1947.71 1703.59 1974.46 1713.99 2005.41 1713.99H2045.78C2079.13 1713.99 2107.77 1702 2131.38 1677.94C2154.98 1654.27 2166.79 1625.83 2166.79 1592.48V1027.51C2166.79 994.142 2154.98 965.622 2131.38 942.014C2107.77 918.384 2079.13 906.525 2045.78 906.525Z" fill="white"/>
<path d="M2489.7 1431.38H2368.86V1028.03C2368.86 1016.8 2372.65 1007.18 2380.49 999.368C2388.41 991.422 2397.91 987.541 2408.81 987.541H2449.26C2460.48 987.541 2469.97 991.422 2477.89 999.368C2485.74 1007.18 2489.7 1016.8 2489.7 1028.03V1431.38ZM2579.75 1002.23C2585.78 995.008 2593.21 990.224 2602.29 988.076C2607.9 986.938 2610.71 983.762 2610.71 978.605V917.748C2610.71 909.89 2606.75 906.525 2598.83 907.742C2572.57 909.889 2549.71 920.038 2530.39 938.036C2506.95 917.024 2479.96 906.525 2449.26 906.525H2408.81C2377.94 906.525 2351.11 917.024 2328.16 938.036C2308.35 920.038 2285.24 909.889 2258.98 907.742C2251.07 906.525 2247.27 909.89 2247.27 917.748V978.605C2247.27 983.762 2250.07 986.938 2255.69 988.076C2265.1 990.224 2272.61 995.008 2278.71 1002.23C2284.66 1009.64 2287.71 1018.21 2287.71 1028.03V1592.92C2287.71 1602.74 2284.66 1611.43 2278.71 1618.84C2272.61 1625.92 2265.1 1630.56 2255.69 1632.34C2250.07 1633.82 2247.27 1637.16 2247.27 1642.51V1703.26C2247.27 1711 2251.07 1714.49 2258.98 1713.35C2285.24 1711 2308.35 1700.99 2328.16 1682.96C2347.72 1700.99 2370.75 1711 2397.41 1713.35C2405.01 1714.49 2408.81 1711 2408.81 1703.26V1642.51C2408.81 1637.16 2406.08 1633.82 2400.8 1632.34C2391.39 1630.56 2383.71 1625.92 2377.77 1618.84C2371.83 1611.43 2368.86 1602.74 2368.86 1592.92V1512.52H2489.7V1592.92C2489.7 1602.74 2486.48 1611.43 2480.13 1618.84C2474.1 1625.92 2466.59 1630.56 2457.67 1632.34C2452.06 1633.82 2449.26 1637.16 2449.26 1642.51V1703.26C2449.26 1711 2453.13 1714.49 2461.05 1713.35C2487.22 1711 2510.09 1700.99 2529.74 1682.96C2549.63 1700.99 2572.57 1711 2598.83 1713.35C2606.75 1714.49 2610.71 1711 2610.71 1703.26V1642.51C2610.71 1636.85 2607.9 1633.41 2602.29 1632.34C2593.21 1630.56 2585.78 1625.92 2579.75 1618.84C2573.32 1611.43 2570.26 1602.74 2570.26 1592.92V1028.03C2570.26 1018.21 2573.32 1009.64 2579.75 1002.23" fill="white"/>
</svg>
