<svg xmlns="http://www.w3.org/2000/svg" viewBox="0 0 776.12 90.05"><defs><style>.cls-1{fill:#6457a0;}</style></defs><title>Recurso 1</title><g id="Capa_2" data-name="Capa 2"><g id="Capa_1-2" data-name="Capa 1"><path class="cls-1" d="M59.57,7.15H54.35L29.43,42.84,10.36,7.15H0l2.61,4V46.88c0,7.57.08,15-1.74,22.42H18C8,63.24,3.88,56.82,3.88,46.09v-33c6.88,13.37,13.84,26.73,20.73,40.1H35L30.3,44.51,49.21,17.34V46.09c0,11.08-2.21,16.71-12.9,23.21H61.24a56.48,56.48,0,0,1-1.67-14.15Z"/><path class="cls-1" d="M97.16,17.61l2.61,2.28V44.25c2.85,3.6,5.14,8.17,5.14,12.66,0,5.1-3.32,8.7-9.25,8.7-12.5,0-26.9-14.33-26.9-25.14,0-3.34,1.5-6.6,5.14-8V7.23H63.54V48.64c0,11.61,9.89,21.9,23.26,21.9s23.34-10.29,23.34-21.9V7.23h-1.27Z"/><path class="cls-1" d="M142,17.52l2.61,2.37V65.17c2.77,3.43,5.06,7.74,5.06,12,0,5-3.56,8.17-9.26,8.17-6.56,0-13.45-3.87-18-7.91L115.13,84a24.89,24.89,0,0,0,16.45,6.06c12.82,0,23.34-9.23,23.34-20.66V7.15h-1.34Z"/><path class="cls-1" d="M166.24,69.57h1.27l8.38-7.47a24,24,0,0,0,18.52,8.61,24.57,24.57,0,0,0,13-3.69V53.22c-4.51,5.89-13.21,12.57-21.76,12.57-3.87,0-9-2.55-9-6.6v-29h14.24l9,8.09V29H176.6V8.55h22l9.1,8V7.32H166.24Z"/><path class="cls-1" d="M263.08,23.5c0-10-8.94-17.85-20.17-17.85a24,24,0,0,0-18.36,8.53l-7.91-7V69.3H227V38.88a24.62,24.62,0,0,0,3.79,2.38c7,9.14,13.69,18.55,20.26,28h10.28L250.82,54.36h-4a9.36,9.36,0,0,1-7.67-3.78l-6.49-8.71a21.56,21.56,0,0,0,7.91,1.5C252.64,43.37,263.08,34.31,263.08,23.5Zm-34.49,7.3c0-8,7-23.57,17.8-23.57,6.41,0,8.39,6.42,8.39,11,0,8-7.05,23.57-17.89,23.57C230.57,41.79,228.59,35.37,228.59,30.8Z"/><path class="cls-1" d="M270.37,69.57h1.26L280,62.1a24,24,0,0,0,18.51,8.61,24.58,24.58,0,0,0,13-3.69V53.22c-4.51,5.89-13.22,12.57-21.76,12.57-3.88,0-9-2.55-9-6.6v-29H295l9,8.09V29H280.73V8.55h22l9.1,8V7.32H270.37Z"/><path class="cls-1" d="M345.85,26.84a31.15,31.15,0,0,0-16.38,4.31c-2.77-3.34-5-7.39-5-11.43,0-5.28,4.11-8.71,10.91-8.71,8.63,0,25.08,4.05,26,10.55l8.71-11.51.23-2.82-24.36-.7c-15.51,0-27.61,9.58-27.61,21.45s11.94,21.81,27.53,21.81a32.8,32.8,0,0,0,16.3-4.22c2.76,3.34,5,7.29,5,11.34,0,6.15-5.7,9.32-13.13,9.32-14.48,0-25.4-7-24.21-18.55l-13.45,5.89c2.92,10.9,12.34,17,26.58,17,16.77,0,30.46-8.27,30.46-21.81C373.38,37.13,361,26.84,345.85,26.84Zm10.36,18c-9.89,0-20.17-6.42-25.55-12.39a14.39,14.39,0,0,1,4.74-.71c10,0,20.18,6.42,25.64,12.49A17.38,17.38,0,0,1,356.21,44.86Z"/><path class="cls-1" d="M466.67,7.15h-5.23L436.52,42.84,417.46,7.15H407.09l2.61,4V46.88c0,7.57.08,15-1.74,22.42h17.17C415.08,63.24,411,56.82,411,46.09v-33c6.88,13.37,13.84,26.73,20.73,40.1h10.36l-4.67-8.71L456.3,17.34V46.09c0,11.08-2.21,16.71-12.89,23.21h24.92a56.47,56.47,0,0,1-1.66-14.15Z"/><path class="cls-1" d="M504.25,17.61l2.61,2.28V44.25c2.85,3.6,5.15,8.17,5.15,12.66,0,5.1-3.33,8.7-9.26,8.7-12.5,0-26.9-14.33-26.9-25.14,0-3.34,1.5-6.6,5.14-8V7.23H470.63V48.64c0,11.61,9.89,21.9,23.26,21.9s23.34-10.29,23.34-21.9V7.23H516Z"/><path class="cls-1" d="M548.17,26.84a31.15,31.15,0,0,0-16.38,4.31c-2.77-3.34-5-7.39-5-11.43,0-5.28,4.11-8.71,10.91-8.71,8.63,0,25.08,4.05,25.95,10.55l8.71-11.51.23-2.82-24.36-.7c-15.51,0-27.62,9.58-27.62,21.45s12,21.81,27.54,21.81a32.8,32.8,0,0,0,16.3-4.22c2.76,3.34,5,7.29,5,11.34,0,6.15-5.7,9.32-13.13,9.32-14.48,0-25.4-7-24.21-18.55l-13.45,5.89c2.92,10.9,12.34,17,26.58,17,16.77,0,30.46-8.27,30.46-21.81C575.7,37.13,563.36,26.84,548.17,26.84Zm10.36,18c-9.89,0-20.17-6.42-25.55-12.39a14.39,14.39,0,0,1,4.74-.71c10,0,20.18,6.42,25.64,12.49A17.43,17.43,0,0,1,558.53,44.86Z"/><polygon class="cls-1" points="582.59 17.52 585.12 19.89 585.12 69.39 595.49 69.39 595.49 7.15 594.22 7.15 582.59 17.52"/><path class="cls-1" d="M628.24,11.1c11.79,0,23.18,6.77,30.07,15l7.2-6.68A35.92,35.92,0,0,0,637.26,6c-19.86,0-35,15-35,32.27s15.11,32.27,35,32.27A36.51,36.51,0,0,0,661.94,61l-.94-.79c-3.88,3.6-9.26,5.18-14.8,5.18-19.54,0-38.45-18.37-38.45-35.43C607.75,19.1,615.74,11.1,628.24,11.1Z"/><path class="cls-1" d="M685.85,7.15l1.58,4.13-12,35.08a19.93,19.93,0,0,0-8.62,16.09c0,2.55.87,4.48,1.34,6.94h17.73C679.12,67.19,672,61.48,672,54.62c0-5,3.56-8.26,9.34-8.26,11.86,0,25.95,12.66,26.82,23h11.39c-8.31-21.71-16-43.69-23.34-65.67ZM690,41.7a25.34,25.34,0,0,0-12.82,3.51L688.06,13l11.47,30.5A25.8,25.8,0,0,0,690,41.7Z"/><path class="cls-1" d="M748.59,26.84a31.17,31.17,0,0,0-16.38,4.31c-2.76-3.34-5-7.39-5-11.43,0-5.28,4.11-8.71,10.92-8.71,8.62,0,25.08,4.05,26,10.55l8.7-11.51L773,7.23l-24.37-.7c-15.51,0-27.61,9.58-27.61,21.45s12,21.81,27.53,21.81a32.77,32.77,0,0,0,16.3-4.22c2.77,3.34,5,7.29,5,11.34,0,6.15-5.69,9.32-13.13,9.32-14.48,0-25.4-7-24.21-18.55l-13.45,5.89c2.93,10.9,12.34,17,26.58,17,16.78,0,30.46-8.27,30.46-21.81C776.12,37.13,763.78,26.84,748.59,26.84Zm10.37,18c-9.89,0-20.18-6.42-25.56-12.39a14.45,14.45,0,0,1,4.75-.71c10,0,20.17,6.42,25.63,12.49A17.31,17.31,0,0,1,759,44.86Z"/><path class="cls-1" d="M506.73,0H502q-5.85,5.51-11.77,10.93l2.39,2.17Q499.73,6.59,506.73,0Z"/></g></g></svg>