<svg xmlns="http://www.w3.org/2000/svg" viewBox="0 0 704.39 81.73"><defs><style>.cls-1{fill:#6457a2;}</style></defs><g id="Capa_2" data-name="Capa 2"><g id="Capa_1-2" data-name="Capa 1"><path class="cls-1" d="M54.07,6.49H49.33L26.71,38.88,9.41,6.49H0l2.37,3.67V42.55c0,6.86.07,13.65-1.58,20.35H16.37C7.25,57.39,3.52,51.57,3.52,41.83V11.91C9.77,24,16.08,36.17,22.33,48.3h9.41L27.5,40.4,44.66,15.74V41.83c0,10.06-2,15.16-11.7,21.07H55.58a51.34,51.34,0,0,1-1.51-12.85Z"/><path class="cls-1" d="M88.18,16l2.37,2.08v22.1c2.59,3.27,4.67,7.42,4.67,11.49,0,4.63-3,7.9-8.4,7.9-11.35,0-24.42-13-24.42-22.82a7.35,7.35,0,0,1,4.67-7.26V6.57H57.66V44.15c0,10.53,9,19.87,21.11,19.87S100,54.68,100,44.15V6.57H98.81Z"/><path class="cls-1" d="M128.83,15.9l2.37,2.16V59.15c2.51,3.11,4.59,7,4.59,10.93,0,4.55-3.23,7.42-8.4,7.42-6,0-12.21-3.51-16.3-7.18l-6.61,5.9a22.59,22.59,0,0,0,14.94,5.51c11.63,0,21.18-8.38,21.18-18.75V6.49h-1.22Z"/><path class="cls-1" d="M150.87,63.14H152l7.61-6.78a21.8,21.8,0,0,0,16.81,7.82,22.23,22.23,0,0,0,11.77-3.36V48.3c-4.09,5.34-12,11.41-19.74,11.41-3.52,0-8.19-2.32-8.19-6V27.39H173.2l8.19,7.34V26.35H160.28V7.76h20L188.5,15V6.65H150.87Z"/><path class="cls-1" d="M238.77,21.33c0-9.1-8.12-16.2-18.31-16.2a21.74,21.74,0,0,0-16.66,7.74l-7.18-6.38V62.9H206V35.29a21.61,21.61,0,0,0,3.45,2.15c6.32,8.3,12.42,16.84,18.38,25.46h9.34l-9.55-13.57H224a8.47,8.47,0,0,1-7-3.43L211.12,38a19.59,19.59,0,0,0,7.18,1.36C229.29,39.36,238.77,31.14,238.77,21.33ZM207.46,28c0-7.26,6.39-21.38,16.15-21.38,5.82,0,7.62,5.82,7.62,10,0,7.26-6.39,21.38-16.23,21.38C209.25,37.92,207.46,32.1,207.46,28Z"/><path class="cls-1" d="M245.38,63.14h1.14l7.62-6.78a21.76,21.76,0,0,0,16.8,7.82,22.2,22.2,0,0,0,11.77-3.36V48.3c-4.09,5.34-12,11.41-19.74,11.41-3.52,0-8.19-2.32-8.19-6V27.39h12.93l8.18,7.34V26.35H254.78V7.76h20L283,15V6.65H245.38Z"/><path class="cls-1" d="M313.88,24.36A28.27,28.27,0,0,0,299,28.27c-2.52-3-4.53-6.7-4.53-10.37,0-4.79,3.74-7.9,9.91-7.9,7.83,0,22.76,3.67,23.55,9.57l7.9-10.45.22-2.55L314,5.93c-14.07,0-25.06,8.69-25.06,19.47s10.84,19.78,25,19.78a29.61,29.61,0,0,0,14.79-3.83c2.52,3,4.53,6.63,4.53,10.3,0,5.58-5.17,8.45-11.92,8.45-13.14,0-23-6.3-22-16.83l-12.2,5.35c2.65,9.89,11.2,15.4,24.12,15.4,15.23,0,27.65-7.5,27.65-19.79C338.87,33.69,327.67,24.36,313.88,24.36Zm9.41,16.36c-9,0-18.31-5.83-23.2-11.25a13.18,13.18,0,0,1,4.31-.64c9.05,0,18.31,5.82,23.27,11.33A15.8,15.8,0,0,1,323.29,40.72Z"/><path class="cls-1" d="M423.53,6.49h-4.74L396.17,38.88,378.87,6.49h-9.41l2.37,3.67V42.55c0,6.86.07,13.65-1.58,20.35h15.58C376.72,57.39,373,51.57,373,41.83V11.91C379.23,24,385.55,36.17,391.79,48.3h9.41L397,40.4l17.17-24.66V41.83c0,10.06-2,15.16-11.71,21.07H425a51.34,51.34,0,0,1-1.51-12.85Z"/><path class="cls-1" d="M457.64,16,460,18.06v22.1c2.59,3.27,4.67,7.42,4.67,11.49,0,4.63-3,7.9-8.4,7.9-11.35,0-24.41-13-24.41-22.82a7.34,7.34,0,0,1,4.66-7.26V6.57h-9.4V44.15c0,10.53,9,19.87,21.11,19.87s21.18-9.34,21.18-19.87V6.57h-1.15Z"/><path class="cls-1" d="M497.5,24.36a28.25,28.25,0,0,0-14.86,3.91c-2.52-3-4.53-6.7-4.53-10.37,0-4.79,3.74-7.9,9.91-7.9,7.83,0,22.76,3.67,23.55,9.57l7.9-10.45.22-2.55-22.12-.64c-14.07,0-25.06,8.69-25.06,19.47s10.84,19.78,25,19.78a29.64,29.64,0,0,0,14.79-3.83c2.51,3,4.52,6.63,4.52,10.3,0,5.58-5.17,8.45-11.92,8.45-13.14,0-23-6.3-22-16.83l-12.2,5.35c2.65,9.89,11.2,15.4,24.12,15.4,15.22,0,27.65-7.5,27.65-19.79C522.49,33.69,511.28,24.36,497.5,24.36Zm9.41,16.36c-9,0-18.32-5.83-23.2-11.25a13.14,13.14,0,0,1,4.31-.64c9.05,0,18.31,5.82,23.26,11.33A15.68,15.68,0,0,1,506.91,40.72Z"/><polygon class="cls-1" points="528.74 15.9 531.04 18.06 531.04 62.98 540.44 62.98 540.44 6.49 539.29 6.49 528.74 15.9"/><path class="cls-1" d="M570.17,10.08c10.7,0,21,6.14,27.29,13.56L604,17.58A32.59,32.59,0,0,0,578.36,5.45c-18,0-31.74,13.56-31.74,29.28S560.33,64,578.36,64a33.2,33.2,0,0,0,22.4-8.62l-.86-.72c-3.52,3.27-8.4,4.71-13.43,4.71-17.73,0-34.9-16.68-34.9-32.16C551.57,17.34,558.83,10.08,570.17,10.08Z"/><path class="cls-1" d="M622.45,6.49l1.44,3.75L613,42.07a18.11,18.11,0,0,0-7.82,14.6c0,2.32.79,4.07,1.22,6.31h16.08c-6.1-2-12.56-7.18-12.56-13.41,0-4.55,3.23-7.5,8.47-7.5,10.77,0,23.55,11.49,24.34,20.91H653c-7.54-19.71-14.5-39.66-21.18-59.61Zm3.74,31.35A22.9,22.9,0,0,0,614.55,41l9.91-29.21,10.41,27.69A23.35,23.35,0,0,0,626.19,37.84Z"/><path class="cls-1" d="M679.4,24.36a28.31,28.31,0,0,0-14.87,3.91c-2.51-3-4.52-6.7-4.52-10.37,0-4.79,3.73-7.9,9.91-7.9,7.83,0,22.76,3.67,23.55,9.57l7.9-10.45.22-2.55-22.12-.64c-14.07,0-25.06,8.69-25.06,19.47s10.84,19.78,25,19.78a29.64,29.64,0,0,0,14.79-3.83c2.51,3,4.52,6.63,4.52,10.3,0,5.58-5.17,8.45-11.92,8.45-13.14,0-23-6.3-22-16.83l-12.2,5.35c2.65,9.89,11.2,15.4,24.12,15.4,15.22,0,27.65-7.5,27.65-19.79C704.39,33.69,693.18,24.36,679.4,24.36Zm9.4,16.36c-9,0-18.31-5.83-23.19-11.25a13.14,13.14,0,0,1,4.31-.64c9.05,0,18.31,5.82,23.26,11.33A15.7,15.7,0,0,1,688.8,40.72Z"/><path class="cls-1" d="M459.9,0h-4.26Q450.33,5,445,9.92l2.17,2Q453.54,6,459.9,0Z"/></g></g></svg>