<svg width="120" height="120" viewBox="0 0 120 120" fill="none" xmlns="http://www.w3.org/2000/svg">
<circle cx="60" cy="60" r="60" fill="#C4C4C4"/>
<path d="M45.5801 54.336C44.2201 54.336 42.9001 54.168 41.6201 53.832C40.3401 53.496 39.3001 53.048 38.5001 52.488L40.0601 48.984C40.8121 49.48 41.6841 49.88 42.6761 50.184C43.6681 50.488 44.6441 50.64 45.6041 50.64C47.4281 50.64 48.3401 50.184 48.3401 49.272C48.3401 48.792 48.0761 48.44 47.5481 48.216C47.0361 47.976 46.2041 47.728 45.0521 47.472C43.7881 47.2 42.7321 46.912 41.8841 46.608C41.0361 46.288 40.3081 45.784 39.7001 45.096C39.0921 44.408 38.7881 43.48 38.7881 42.312C38.7881 41.288 39.0681 40.368 39.6281 39.552C40.1881 38.72 41.0201 38.064 42.1241 37.584C43.2441 37.104 44.6121 36.864 46.2281 36.864C47.3321 36.864 48.4201 36.992 49.4921 37.248C50.5641 37.488 51.5081 37.848 52.3241 38.328L50.8601 41.856C49.2601 40.992 47.7081 40.56 46.2041 40.56C45.2601 40.56 44.5721 40.704 44.1401 40.992C43.7081 41.264 43.4921 41.624 43.4921 42.072C43.4921 42.52 43.7481 42.856 44.2601 43.08C44.7721 43.304 45.5961 43.536 46.7321 43.776C48.0121 44.048 49.0681 44.344 49.9001 44.664C50.7481 44.968 51.4761 45.464 52.0841 46.152C52.7081 46.824 53.0201 47.744 53.0201 48.912C53.0201 49.92 52.7401 50.832 52.1801 51.648C51.6201 52.464 50.7801 53.12 49.6601 53.616C48.5401 54.096 47.1801 54.336 45.5801 54.336ZM55.2152 37.2H59.9672V54H55.2152V37.2ZM79.332 37.2V54H75.42L68.004 45.048V54H63.348V37.2H67.26L74.676 46.152V37.2H79.332ZM30.6234 69.872V73.568H38.0394V77.24H30.6234V83H25.8714V66.2H39.0474V69.872H30.6234ZM49.6012 83.336C47.8252 83.336 46.2252 82.96 44.8012 82.208C43.3932 81.456 42.2812 80.416 41.4652 79.088C40.6652 77.76 40.2652 76.264 40.2652 74.6C40.2652 72.936 40.6652 71.44 41.4652 70.112C42.2812 68.784 43.3932 67.744 44.8012 66.992C46.2252 66.24 47.8252 65.864 49.6012 65.864C51.3772 65.864 52.9692 66.24 54.3772 66.992C55.8012 67.744 56.9132 68.784 57.7132 70.112C58.5292 71.44 58.9372 72.936 58.9372 74.6C58.9372 76.264 58.5292 77.76 57.7132 79.088C56.9132 80.416 55.8012 81.456 54.3772 82.208C52.9692 82.96 51.3772 83.336 49.6012 83.336ZM49.6012 79.4C50.4492 79.4 51.2172 79.2 51.9052 78.8C52.5932 78.4 53.1372 77.84 53.5372 77.12C53.9372 76.384 54.1372 75.544 54.1372 74.6C54.1372 73.656 53.9372 72.824 53.5372 72.104C53.1372 71.368 52.5932 70.8 51.9052 70.4C51.2172 70 50.4492 69.8 49.6012 69.8C48.7532 69.8 47.9852 70 47.2972 70.4C46.6092 70.8 46.0652 71.368 45.6652 72.104C45.2652 72.824 45.0652 73.656 45.0652 74.6C45.0652 75.544 45.2652 76.384 45.6652 77.12C46.0652 77.84 46.6092 78.4 47.2972 78.8C47.9852 79.2 48.7532 79.4 49.6012 79.4ZM64.7677 69.968H59.6077V66.2H74.6557V69.968H69.5197V83H64.7677V69.968ZM84.6637 83.336C82.8877 83.336 81.2877 82.96 79.8637 82.208C78.4557 81.456 77.3437 80.416 76.5277 79.088C75.7277 77.76 75.3277 76.264 75.3277 74.6C75.3277 72.936 75.7277 71.44 76.5277 70.112C77.3437 68.784 78.4557 67.744 79.8637 66.992C81.2877 66.24 82.8877 65.864 84.6637 65.864C86.4397 65.864 88.0317 66.24 89.4397 66.992C90.8637 67.744 91.9757 68.784 92.7757 70.112C93.5917 71.44 93.9997 72.936 93.9997 74.6C93.9997 76.264 93.5917 77.76 92.7757 79.088C91.9757 80.416 90.8637 81.456 89.4397 82.208C88.0317 82.96 86.4397 83.336 84.6637 83.336ZM84.6637 79.4C85.5117 79.4 86.2797 79.2 86.9677 78.8C87.6557 78.4 88.1997 77.84 88.5997 77.12C88.9997 76.384 89.1997 75.544 89.1997 74.6C89.1997 73.656 88.9997 72.824 88.5997 72.104C88.1997 71.368 87.6557 70.8 86.9677 70.4C86.2797 70 85.5117 69.8 84.6637 69.8C83.8157 69.8 83.0477 70 82.3597 70.4C81.6717 70.8 81.1277 71.368 80.7277 72.104C80.3277 72.824 80.1277 73.656 80.1277 74.6C80.1277 75.544 80.3277 76.384 80.7277 77.12C81.1277 77.84 81.6717 78.4 82.3597 78.8C83.0477 79.2 83.8157 79.4 84.6637 79.4Z" fill="white"/>
</svg>
